<svg width="225" height="45" viewBox="0 0 225 45" fill="none" xmlns="http://www.w3.org/2000/svg">
<path d="M94.8432 9.72H98.6832L91.1232 38H85.3232L79.1632 14.4L72.9632 38H67.1632L59.6032 9.72H63.4832L70.1232 34.48L76.6432 9.72H81.6432L88.1632 34.56L94.8432 9.72ZM101.651 27.68C101.651 24.32 102.491 21.72 104.171 19.88C105.851 18.0133 108.225 17.08 111.291 17.08C114.305 17.08 116.478 17.9867 117.811 19.8C119.171 21.5867 119.851 24.1733 119.851 27.56V28.2H105.491C105.545 30.52 106.091 32.2933 107.131 33.52C108.171 34.7467 109.665 35.36 111.611 35.36C112.678 35.36 113.705 35.24 114.691 35C115.678 34.7333 116.771 34.3333 117.971 33.8L119.051 36.36C117.691 37.0533 116.398 37.56 115.171 37.88C113.945 38.1733 112.691 38.32 111.411 38.32C108.318 38.32 105.918 37.3867 104.211 35.52C102.505 33.6533 101.651 31.04 101.651 27.68ZM111.291 20.04C109.718 20.04 108.451 20.4933 107.491 21.4C106.558 22.3067 105.945 23.64 105.651 25.4H115.891C115.705 23.56 115.238 22.2133 114.491 21.36C113.745 20.48 112.678 20.04 111.291 20.04Z" fill="black"/>
<path d="M133.374 23.8C133.374 19.1067 134.467 15.5333 136.654 13.08C138.867 10.6 142.067 9.36 146.254 9.36C150.147 9.36 153.134 10.7333 155.214 13.48L152.574 15.64C151.054 13.64 148.947 12.64 146.254 12.64C143.4 12.64 141.214 13.6 139.694 15.52C138.2 17.4133 137.454 20.1733 137.454 23.8C137.454 27.5333 138.227 30.36 139.774 32.28C141.347 34.2 143.654 35.16 146.694 35.16C148.774 35.16 151.027 34.5333 153.454 33.28L154.574 36.28C153.587 36.92 152.347 37.4267 150.854 37.8C149.36 38.1733 147.787 38.36 146.134 38.36C142.027 38.36 138.867 37.1067 136.654 34.6C134.467 32.0933 133.374 28.4933 133.374 23.8ZM170.923 17.08C173.11 17.08 174.777 17.7067 175.923 18.96C177.097 20.2133 177.683 22.0267 177.683 24.4V38H173.923V24.68C173.923 23.0533 173.603 21.88 172.963 21.16C172.35 20.4133 171.35 20.04 169.963 20.04C168.71 20.04 167.563 20.3333 166.523 20.92C165.483 21.48 164.63 22.2667 163.963 23.28V38H160.203V7.64H163.963V20.04C165.777 18.0667 168.097 17.08 170.923 17.08ZM182.509 32.44C182.509 30.2533 183.389 28.56 185.149 27.36C186.909 26.16 189.402 25.56 192.629 25.56H195.669V24.76C195.669 23.0533 195.309 21.84 194.589 21.12C193.895 20.4 192.695 20.04 190.989 20.04C189.895 20.04 188.922 20.1467 188.069 20.36C187.215 20.5467 186.122 20.9333 184.789 21.52L183.669 18.92C186.175 17.6933 188.642 17.08 191.069 17.08C193.975 17.08 196.095 17.7067 197.429 18.96C198.762 20.1867 199.429 22.1467 199.429 24.84V38H196.509C196.482 37.8933 196.429 37.64 196.349 37.24C196.269 36.8133 196.149 36.2667 195.989 35.6C194.069 37.52 191.829 38.48 189.269 38.48C187.215 38.48 185.575 37.9333 184.349 36.84C183.122 35.7467 182.509 34.28 182.509 32.44ZM186.269 32.36C186.269 33.3733 186.589 34.16 187.229 34.72C187.869 35.2533 188.789 35.52 189.989 35.52C191.055 35.52 192.095 35.28 193.109 34.8C194.122 34.2933 194.975 33.6133 195.669 32.76V28.36H192.869C190.682 28.36 189.029 28.6933 187.909 29.36C186.815 30.0267 186.269 31.0267 186.269 32.36ZM203.667 20.32V17.44H207.587L208.227 11.44H211.027V17.44H217.307V20.32H211.027V31.68C211.027 34.0533 212.027 35.24 214.027 35.24C214.827 35.24 215.813 35.0533 216.987 34.68L217.627 37.32C216.16 37.9333 214.733 38.24 213.347 38.24C211.56 38.24 210.093 37.7067 208.947 36.64C207.827 35.5733 207.267 33.9867 207.267 31.88V20.32H203.667Z" fill="#727272"/>
<path d="M0 2V26.1085C0 28.1837 2.77023 28.8857 3.75859 27.0611L5.95974 22.9974C6.29484 22.3788 6.93036 21.9817 7.6333 21.9518L28.085 21.0815C29.1556 21.0359 30 20.1548 30 19.0833V2C30 0.895431 29.1046 0 28 0H2C0.895431 0 0 0.89543 0 2Z" fill="#A0A0A0"/>
<path d="M45 13V37.1085C45 39.1837 42.2298 39.8857 41.2414 38.0611L39.0403 33.9974C38.7052 33.3788 38.0696 32.9817 37.3667 32.9518L16.915 32.0815C15.8444 32.0359 15 31.1548 15 30.0833V13C15 11.8954 15.8954 11 17 11H43C44.1046 11 45 11.8954 45 13Z" fill="#575757"/>
</svg>
