<svg width="501" height="500" viewBox="0 0 501 500" fill="none" xmlns="http://www.w3.org/2000/svg">
<path opacity="0.41" d="M185.387 349.528C180.452 349.508 175.511 349.315 170.564 348.921C116.355 344.597 53.5543 319.407 26.5623 273.544C2.96441 233.45 -6.30072 181.541 4.44368 136.825C14.5437 94.7916 45.8571 60.7422 89.7047 47.8128C139.017 33.2727 193.518 50.9398 242.041 31.0821C312.666 2.18018 401.433 25.1329 450.93 80.1228C494.814 128.876 505.435 207.491 491.66 268.403C484.698 299.188 466.384 328.837 437.231 344.336C414.036 356.668 385.998 359.099 359.475 355.885C338.149 353.301 318.514 346.532 297.998 340.962C281.554 336.497 268.061 338.821 251.23 342.062C229.569 346.233 207.544 349.618 185.387 349.528Z" fill="#676767"/>
<path d="M197.488 320.112C193.495 320.096 189.496 319.94 185.494 319.621C141.628 316.122 90.8126 295.739 68.9719 258.629C49.8773 226.185 42.3791 184.182 51.0738 147.998C59.2468 113.986 84.5848 86.4333 120.065 75.9719C159.968 64.2069 204.069 78.5026 243.332 62.4344C300.48 39.0483 372.309 57.6211 412.361 102.117C447.87 141.567 456.465 205.18 445.318 254.469C439.685 279.379 424.864 303.37 401.275 315.912C382.506 325.89 359.819 327.858 338.356 325.257C321.099 323.166 305.211 317.69 288.611 313.182C275.305 309.568 264.385 311.449 250.766 314.072C233.24 317.447 215.417 320.184 197.488 320.112Z" fill="#676767" stroke="#414141" stroke-width="1.9456" stroke-miterlimit="10" stroke-dasharray="3.85 3.85"/>
<path opacity="0.87" d="M453.744 484.63C465.534 484.63 475.092 483.923 475.092 483.051C475.092 482.179 465.534 481.472 453.744 481.472C441.953 481.472 432.396 482.179 432.396 483.051C432.396 483.923 441.953 484.63 453.744 484.63Z" fill="#515159"/>
<path d="M456.453 423.32C456.453 423.32 438.176 411.236 449.916 393.672C461.657 376.107 458.721 370.003 454.613 365.058C464.591 376.107 462.404 388.697 456.453 396.683C450.502 404.668 449.559 415.535 456.453 423.32Z" fill="white"/>
<path d="M471.366 438.313H436.121L439.561 481.733H467.926L471.366 438.313Z" fill="#FEFEFE"/>
<path d="M475.092 436.092H432.396V441.184H475.092V436.092Z" fill="#8B8B8C"/>
<path d="M466.708 431.513H440.781C438.207 431.513 436.121 433.543 436.121 436.047V436.093H471.367V436.047C471.366 433.543 469.28 431.513 466.708 431.513Z" fill="#5A5A63"/>
<path d="M469.406 463.05L470.24 452.532H437.247L438.081 463.05H469.406Z" fill="#8591FF"/>
<path d="M471.366 436.092V436.046C471.366 433.541 469.28 431.511 466.706 431.511H453.866C456.44 431.511 458.526 433.541 458.526 436.046V436.092H462.25V441.184H458.298L455.086 481.732H467.926L471.139 441.184H475.092V436.092H471.366Z" fill="white"/>
<path d="M282.145 166.088C282.145 166.088 289.532 143.546 278.74 137.001C271.88 133.57 268.132 137.844 268.132 137.844C268.132 137.844 264.906 121.906 242.678 127.171C228.28 130.582 223.739 123.359 223.739 123.359C223.739 123.359 223.604 143.339 233.52 149.28C240.699 155.27 237.946 171.464 237.946 171.464L282.145 166.088Z" fill="#313131"/>
<path opacity="0.87" d="M347.627 460.663C347.627 460.663 387.645 461.833 398.813 471.865C410.559 482.416 422.881 498.891 372.319 498.574C321.757 498.256 276.933 484.714 234.526 489.012C192.119 493.309 157.319 500.719 147.181 499.075C137.044 497.432 209.302 463.747 209.302 463.747L343.456 468.538L347.627 460.663Z" fill="#515159"/>
<path d="M310.198 373.07L259.75 368.139L209.302 373.07C209.302 373.07 206.306 396.266 196.564 408.64C259.75 430.723 259.75 430.723 259.75 430.723C259.75 430.723 259.75 430.723 322.936 408.64C313.195 396.266 310.198 373.07 310.198 373.07Z" fill="#A87D1D"/>
<path d="M257.757 430.026C259.747 430.722 259.75 430.723 259.75 430.723C259.75 430.723 259.752 430.722 261.74 430.027C273.365 404.002 270.584 374.804 269.895 369.131L259.751 368.139L246.768 369.408C246.508 375.644 246.075 404.167 257.757 430.026Z" fill="#A87D1D"/>
<path d="M209.016 374.963C209.018 374.964 262.1 397.747 313.366 387.845C311.063 379.747 310.199 373.07 310.199 373.07L259.751 368.139L219.226 372.101L209.016 374.963Z" fill="#895436"/>
<path d="M233.519 149.279C240.698 155.269 237.944 171.462 237.944 171.462L247.336 170.321C256.981 161.968 267.868 151.393 266.287 147.41C263.517 140.429 255.515 133.461 240.76 132.664C226.005 131.866 223.738 123.358 223.738 123.358C223.738 123.358 223.603 143.338 233.519 149.279Z" fill="#515159"/>
<path d="M257.919 205.845L216.213 220.64L209.302 373.071C209.302 373.071 224.045 379.796 259.75 379.796C259.75 221.363 259.75 208.212 259.75 208.212L257.919 205.845Z" fill="white"/>
<path d="M261.581 205.845L303.287 220.64L310.198 373.071C310.198 373.071 295.455 379.796 259.75 379.796C259.75 221.363 259.75 208.212 259.75 208.212L261.581 205.845Z" fill="white"/>
<path d="M216.213 220.64L216.02 220.707C203.838 224.941 194.103 234.052 189.282 245.734L144.514 351.173L182.582 355.587L214.808 278.73L216.213 220.64Z" fill="#FF7E6E"/>
<path d="M303.287 220.64L303.481 220.707C315.663 224.941 325.398 234.052 330.219 245.734L374.987 351.173L336.919 355.587L304.693 278.73L303.287 220.64Z" fill="#FF7E6E"/>
<path d="M347.603 286.675L330.219 245.733C325.398 234.051 315.663 224.941 303.481 220.706L303.287 220.639L304.693 278.727L313.823 300.5C326.01 290.568 338.237 287.343 347.603 286.675Z" fill="#E8E8E8"/>
<path d="M171.897 286.675L189.28 245.733C194.102 234.051 203.836 224.941 216.019 220.706L216.213 220.639L214.806 278.727L205.677 300.5C193.49 290.568 181.263 287.343 171.897 286.675Z" fill="#E8E8E8"/>
<path d="M306.012 280.736C306.012 280.736 304.883 279.196 303.288 276.311L304.695 278.727C304.695 278.727 288.827 364.431 246.409 379.455C250.487 379.668 254.92 379.794 259.751 379.794C295.456 379.794 310.199 373.069 310.199 373.069L306.012 280.736Z" fill="#D3D3D3"/>
<path opacity="0.52" d="M196.564 269.507C207.321 240.142 207.92 240.367 231.417 234.986C254.913 229.606 250.293 208.551 250.293 208.551L228.387 216.322L224.999 217.524L216.213 220.64L216.019 220.707C203.836 224.941 194.102 234.052 189.28 245.732L146.368 346.803C164.491 333.821 187.401 294.517 196.564 269.507Z" fill="#FFF6E7"/>
<path opacity="0.28" d="M322.936 269.507C312.178 240.142 311.58 240.367 288.083 234.986C264.587 229.606 269.207 208.551 269.207 208.551L291.113 216.322L294.501 217.524L303.286 220.64L303.48 220.707C315.662 224.941 325.397 234.052 330.218 245.732L373.13 346.803C355.009 333.821 332.099 294.517 322.936 269.507Z" fill="#4C2A29"/>
<path d="M259.863 224.65H259.637C253.472 224.65 248.474 219.787 248.474 213.787V187.852H271.025V213.787C271.026 219.787 266.027 224.65 259.863 224.65Z" fill="#FF7E6E"/>
<path d="M270.845 207.856C270.909 207.856 270.963 207.849 271.026 207.848V187.852H260.499L248.474 192.081C248.474 192.081 252.949 207.856 270.845 207.856Z" fill="#4C2A29"/>
<path d="M285.981 172.271C285.981 176.163 282.74 179.318 278.74 179.318C274.742 179.318 271.499 176.163 271.499 172.271C271.499 168.379 274.742 165.225 278.74 165.225C282.739 165.225 285.981 168.379 285.981 172.271Z" fill="#C64F4F"/>
<path d="M280.149 179.179C281.195 175.095 281.809 169.869 282.144 166.088C281.125 165.556 279.977 165.225 278.739 165.225C274.74 165.225 271.498 168.38 271.498 172.271C271.498 176.163 274.74 179.318 278.739 179.318C279.223 179.318 279.693 179.267 280.149 179.179Z" fill="#803D3D"/>
<path d="M233.519 172.271C233.519 176.163 236.761 179.318 240.76 179.318C244.759 179.318 248.001 176.163 248.001 172.271C248.001 168.379 244.759 165.225 240.76 165.225C236.761 165.225 233.519 168.379 233.519 172.271Z" fill="#C64F4F"/>
<path d="M239.351 179.179C238.304 175.095 237.691 169.869 237.356 166.088C238.375 165.556 239.523 165.225 240.761 165.225C244.761 165.225 248.002 168.38 248.002 172.271C248.002 176.163 244.759 179.318 240.761 179.318C240.278 179.318 239.807 179.267 239.351 179.179Z" fill="#803D3D"/>
<path d="M272.494 147.626H259.75H247.006L240.698 161.038L241.758 174.311C242.325 181.394 247.027 193.624 253.644 196.629C255.609 197.522 257.692 198.117 259.75 198.117C261.808 198.117 263.89 197.522 265.856 196.629C272.472 193.624 277.175 181.395 277.741 174.311L278.802 161.038L272.494 147.626Z" fill="#FF7E6E"/>
<path d="M266.287 164.462C266.287 164.462 270.563 165.629 275.402 164.462" stroke="#313131" stroke-width="1.3362" stroke-miterlimit="10" stroke-linecap="round"/>
<path d="M264.906 156.835C264.906 156.835 271.152 155.824 274.907 157.93" stroke="#313131" stroke-width="2.6723" stroke-miterlimit="10" stroke-linecap="round"/>
<path d="M253.213 164.462C253.213 164.462 248.936 165.629 244.097 164.462" stroke="#313131" stroke-width="1.3362" stroke-miterlimit="10" stroke-linecap="round"/>
<path d="M254.594 156.835C254.594 156.835 248.348 155.824 244.593 157.93" stroke="#313131" stroke-width="2.6723" stroke-miterlimit="10" stroke-linecap="round"/>
<path opacity="0.52" d="M249.594 176.028C248.762 162.617 247.006 147.626 247.006 147.626L240.698 161.038L241.035 165.251C240.942 165.248 240.854 165.224 240.761 165.224C236.762 165.224 233.52 168.379 233.52 172.27C233.52 176.162 236.762 179.316 240.761 179.316C241.394 179.316 241.999 179.213 242.584 179.064C244.289 185.919 248.351 194.225 253.645 196.629C255.611 197.522 257.693 198.117 259.751 198.117C259.751 198.117 250.426 189.44 249.594 176.028Z" fill="#FFF6E7"/>
<path d="M303.287 432.697L159.161 390.145C140.024 384.495 119.898 395.458 114.84 414.285L114.649 414.996C109.439 434.394 122.365 453.991 142.661 457.442C195.95 466.507 292.536 481.922 343.37 483.807L364.798 497.708C368.033 499.808 372.329 499.462 375.166 496.873L375.277 496.773C378.648 493.698 378.82 488.545 375.662 485.263L372.32 481.79C372.32 481.79 369.34 467.668 354.628 461.614C339.915 455.562 338.533 440.767 335.078 432.697C331.621 424.627 309.507 420.593 303.287 432.697Z" fill="#8C4242"/>
<path d="M114.84 414.285C119.898 395.457 140.025 384.495 159.161 390.145L208.037 404.576C200.675 413.514 190.965 431.657 190.671 465.328C172.826 462.506 156.317 459.765 142.66 457.442C122.364 453.991 109.438 434.393 114.648 414.996L114.84 414.285Z" fill="#8591FF"/>
<path opacity="0.67" d="M160.305 443.866C160.305 449.585 158.895 454.982 156.41 459.757C151.584 458.952 146.966 458.175 142.661 457.442C122.365 453.991 109.439 434.393 114.65 414.996L114.84 414.285C115.294 412.594 115.874 410.969 116.56 409.411C118.994 408.908 121.517 408.639 124.105 408.639C144.098 408.64 160.305 424.411 160.305 443.866Z" fill="#A87D1D"/>
<path d="M310.198 452.199C310.198 452.199 308.125 463.953 288.084 459.757" stroke="#7B3C38" stroke-width="1.139" stroke-miterlimit="10"/>
<path opacity="0.28" d="M322.936 446.819C322.936 446.819 292.229 445.474 227.269 434.198C174.64 425.063 159.202 398.848 155.237 389.224C156.546 389.458 157.855 389.759 159.16 390.144L303.286 432.696C309.506 420.591 331.62 424.626 335.075 432.696C338.53 440.766 339.912 455.56 354.624 461.613C369.337 467.665 372.316 481.788 372.316 481.788C372.316 481.788 357.188 472.373 347.625 470.356C338.061 468.339 322.936 446.819 322.936 446.819Z" fill="#4C2A29"/>
<path d="M329.586 483.051C329.586 483.051 356.051 507.692 378.614 497.552C382.369 495.866 383.545 491.2 381.093 487.961C362.087 462.843 338.124 435.478 328.99 425.194C326.704 422.62 323.084 421.579 319.726 422.529L293.734 429.876L329.586 483.051Z" fill="#313131"/>
<path d="M293.734 429.877L268.839 422.526L287.697 478.997L329.586 483.051L293.734 429.877Z" fill="#A5A5A5"/>
<path d="M216.213 432.697L360.34 390.146C379.477 384.495 399.603 395.458 404.661 414.285L404.851 414.996C410.062 434.394 397.136 453.991 376.84 457.442C323.551 466.507 226.965 481.922 176.131 483.807L154.703 497.708C151.467 499.808 147.172 499.462 144.334 496.873L144.224 496.773C140.853 493.698 140.681 488.546 143.839 485.263L147.181 481.79C147.181 481.79 150.16 467.668 164.873 461.615C179.586 455.563 180.968 440.767 184.423 432.697C187.879 424.627 209.992 420.593 216.213 432.697Z" fill="#FF7E6E"/>
<path d="M404.66 414.285C399.602 395.457 379.475 384.495 360.339 390.145L311.462 404.576C318.825 413.514 328.535 431.657 328.828 465.328C346.672 462.506 363.182 459.765 376.839 457.442C397.135 453.991 410.061 434.393 404.85 414.996L404.66 414.285Z" fill="#8591FF"/>
<path opacity="0.67" d="M359.194 443.866C359.194 449.585 360.605 454.982 363.09 459.757C367.916 458.952 372.533 458.175 376.839 457.442C397.135 453.991 410.061 434.393 404.85 414.996L404.66 414.285C404.206 412.594 403.626 410.969 402.94 409.411C400.506 408.908 397.983 408.639 395.395 408.639C375.402 408.64 359.194 424.411 359.194 443.866Z" fill="#A87D1D"/>
<path opacity="0.28" d="M196.564 446.819C196.564 446.819 227.27 445.474 292.231 434.198C344.859 425.063 360.297 398.848 364.263 389.224C362.954 389.458 361.644 389.759 360.34 390.144L216.213 432.697C209.994 420.592 187.879 424.627 184.424 432.697C180.969 440.767 179.587 455.561 164.874 461.614C150.162 467.666 147.182 481.79 147.182 481.79C147.182 481.79 162.31 472.374 171.874 470.358C181.436 468.339 196.564 446.819 196.564 446.819Z" fill="#4C2A29"/>
<path opacity="0.57" d="M164.873 461.615L143.268 457.717C123.713 454.679 110.47 436.691 113.806 417.697L113.937 416.953C117.574 396.244 139.175 383.435 159.756 389.783L200.55 402.365" stroke="white" stroke-width="1.1139" stroke-miterlimit="10"/>
<path d="M252.34 175.808C251.564 175.808 251.107 176.684 251.584 177.281C253.748 179.984 256.612 181.636 259.761 181.636C262.91 181.636 265.774 179.984 267.937 177.281C268.414 176.684 267.958 175.808 267.181 175.808H252.34Z" fill="white"/>
<path d="M261.889 164.166V171.461C261.889 171.461 260.165 170.513 257.766 171.461" stroke="#313131" stroke-width="0.8212" stroke-miterlimit="10" stroke-linecap="round"/>
<path d="M268.132 137.843H266.287V149.257H268.132V137.843Z" fill="#FF7E6E"/>
<path d="M374.987 351.172L375.063 351.377C379.384 363.016 374.209 375.971 362.945 381.718L285.981 420.977L285.601 420.021C278.82 402.975 285.913 383.667 302.262 374.667L336.92 355.586L374.987 351.172Z" fill="#FF7E6E"/>
<path opacity="0.28" d="M358.736 375.219C358.736 377.984 359.446 380.584 360.686 382.869L362.945 381.716C371.828 377.185 376.901 368.167 376.538 358.85C376.227 358.833 375.92 358.804 375.605 358.804C366.287 358.804 358.736 366.153 358.736 375.219Z" fill="#4C2A29"/>
<path d="M336.919 355.586L358.736 343.547" stroke="#4C2A29" stroke-width="1.3362" stroke-miterlimit="10" stroke-linecap="round"/>
<path d="M144.739 351.172L144.662 351.377C140.342 363.016 145.516 375.971 156.78 381.718L233.744 420.977L234.125 420.021C240.907 402.975 233.814 383.667 217.465 374.667L182.806 355.586L144.739 351.172Z" fill="#FF7E6E"/>
<path opacity="0.28" d="M160.99 375.219C160.99 377.984 160.28 380.584 159.04 382.869L156.78 381.716C147.897 377.185 142.826 368.167 143.188 358.85C143.498 358.833 143.805 358.804 144.121 358.804C153.437 358.804 160.99 366.153 160.99 375.219Z" fill="#4C2A29"/>
<path d="M182.806 355.586L160.99 343.547" stroke="#4C2A29" stroke-width="1.3362" stroke-miterlimit="10" stroke-linecap="round"/>
<path d="M225.204 416.619C225.204 416.619 229.088 395.878 216.439 389.224" stroke="#4C2A29" stroke-width="1.3362" stroke-miterlimit="10" stroke-linecap="round"/>
<path d="M294.296 416.619C294.296 416.619 290.412 395.878 303.061 389.224" stroke="#4C2A29" stroke-width="1.3362" stroke-miterlimit="10" stroke-linecap="round"/>
<path d="M189.914 483.051C189.914 483.051 163.448 507.692 140.886 497.552C137.132 495.866 135.955 491.2 138.406 487.961C157.412 462.843 181.374 435.478 190.51 425.194C192.796 422.62 196.416 421.579 199.774 422.529L225.766 429.876L189.914 483.051Z" fill="#313131"/>
<path d="M225.767 429.877L250.661 422.526L231.803 478.997L189.914 483.051L225.767 429.877Z" fill="#ECECEC"/>
<path opacity="0.28" d="M215.413 445.232C222.797 444.466 232.389 443.343 244.253 441.713L250.661 422.527L225.767 429.877L215.413 445.232Z" fill="#4C2A29"/>
<path d="M197.845 465.901L183.403 487.32C182.504 488.653 180.897 489.366 179.273 489.151L179.177 489.138C176.048 488.725 174.456 485.257 176.227 482.713L190.997 461.494C191.943 460.136 193.65 459.488 195.29 459.862L195.375 459.881C198.124 460.509 199.394 463.604 197.845 465.901Z" fill="#FFF6E7"/>
<path d="M257.766 342.109H169.384L191.175 417.639H257.766H324.357L346.148 342.109H257.766Z" fill="white"/>
<path d="M324.357 417.639H191.175V428.64H324.357V417.639Z" fill="#8B8B8C"/>
<path d="M257.918 396.595C269.852 396.595 279.528 391.774 279.528 385.826C279.528 379.878 269.852 375.056 257.918 375.056C245.983 375.056 236.307 379.878 236.307 385.826C236.307 391.774 245.983 396.595 257.918 396.595Z" fill="#5A5A63"/>
<path d="M346.148 337.098H169.384V342.108H346.148V337.098Z" fill="#5A5A63"/>
<path d="M211.889 420.797H198.552V425.22H211.889V420.797Z" fill="#5A5A63"/>
<path d="M231.139 420.797H217.801V425.22H231.139V420.797Z" fill="#5A5A63"/>
<path d="M324.357 423.139H243.302" stroke="#0F1201" stroke-miterlimit="10"/>
<path opacity="0.54" d="M169.384 342.108L191.175 417.64H238.609C266.775 385.862 283.888 342.108 283.888 342.108L283.829 337.098H169.384V342.108Z" fill="white"/>
<path opacity="0.57" d="M169.384 342.109H346.148" stroke="#0F1201" stroke-miterlimit="10"/>
<path opacity="0.87" d="M77.5587 484.63C95.2601 484.63 109.61 483.923 109.61 483.051C109.61 482.179 95.2601 481.472 77.5587 481.472C59.8574 481.472 45.5076 482.179 45.5076 483.051C45.5076 483.923 59.8574 484.63 77.5587 484.63Z" fill="#515159"/>
<path d="M82.2453 467.52L84.3459 465.293L83.2962 466.407L84.3556 465.301C84.0971 465.062 58.8028 440.107 89.3565 327.658L86.3518 326.885C55.1586 441.687 81.1253 466.519 82.2453 467.52Z" fill="#5A5A63"/>
<path d="M72.8224 329.594C84.3944 339.827 82.3667 351.926 82.3667 351.926C82.3667 351.926 70.7777 347.117 68.0897 332.128C67.6177 329.499 70.7934 327.799 72.8224 329.594Z" fill="#5A5A63"/>
<path d="M101.776 336.817C86.5703 340.369 82.3655 351.926 82.3655 351.926C82.3655 351.926 94.9022 353.137 104.672 341.255C106.386 339.172 104.442 336.195 101.776 336.817Z" fill="#5A5A63"/>
<path d="M64.8933 359.002C77.4641 368.052 76.6959 380.289 76.6959 380.289C76.6959 380.289 64.6688 376.637 60.4458 361.986C59.7056 359.417 62.6884 357.415 64.8933 359.002Z" fill="#5A5A63"/>
<path d="M94.4471 363.357C79.686 368.379 76.6959 380.288 76.6959 380.288C76.6959 380.288 89.2946 380.265 97.7867 367.489C99.2757 365.25 97.0343 362.478 94.4471 363.357Z" fill="#5A5A63"/>
<path d="M59.8683 384.791C73.0931 392.911 73.2569 405.17 73.2569 405.17C73.2569 405.17 60.9859 402.395 55.6598 388.087C54.7266 385.579 57.5505 383.367 59.8683 384.791Z" fill="#5A5A63"/>
<path d="M89.672 387.008C75.3331 393.079 73.2568 405.17 73.2568 405.17C73.2568 405.17 85.8191 404.24 93.3173 390.887C94.6316 388.547 92.1863 385.943 89.672 387.008Z" fill="#5A5A63"/>
<path d="M97.612 307.061C97.8741 322.276 87.4246 329.124 87.4246 329.124C87.4246 329.124 83.0899 317.612 92.4727 305.44C94.1171 303.306 97.5658 304.394 97.612 307.061Z" fill="#5A5A63"/>
<path d="M93.1426 417.663H59.5418V482.347H93.1426V417.663Z" fill="#8591FF"/>
<path opacity="0.67" d="M93.1426 417.663H79.7188V482.347H93.1426V417.663Z" fill="#A87D1D"/>
<path d="M107.898 109.156L95.8074 112.082C94.0539 112.507 92.2773 111.467 91.8417 109.76L90.6779 105.207L109.121 100.743L110.285 105.297C110.72 107.004 109.652 108.732 107.898 109.156Z" fill="#A87D1D"/>
<path d="M152.824 95.1258L48.3799 120.402C46.5681 120.841 44.7333 119.767 44.2819 118.003L27.0573 50.6055C26.6071 48.8425 27.7102 47.057 29.5232 46.6177L133.967 21.3411C135.779 20.903 137.614 21.9764 138.064 23.7406L155.289 91.138C155.74 92.9022 154.636 94.6865 152.824 95.1258Z" fill="#A87D1D"/>
<path d="M149.728 83.4778L146.816 91.6211L54.1489 114.047L45.9201 108.601L28.8521 41.8224L132.662 16.6992L149.728 83.4778Z" fill="#8591FF"/>
<path d="M79.4188 29.5862L28.8461 41.8235L45.9096 108.6L96.4823 96.3626L79.4188 29.5862Z" fill="white"/>
<path d="M76.2934 35.2998L34.741 45.3544L35.3378 47.6898L76.8902 37.6352L76.2934 35.2998Z" fill="white"/>
<path d="M78.2115 42.7597L36.6591 52.8185L37.2561 55.1539L78.8085 45.0951L78.2115 42.7597Z" fill="white"/>
<path d="M80.1116 50.2435L38.5592 60.2981L39.156 62.6335L80.7083 52.5789L80.1116 50.2435Z" fill="white"/>
<path d="M82.0211 57.7146L40.4687 67.7692L41.0655 70.1046L82.6178 60.05L82.0211 57.7146Z" fill="white"/>
<path d="M83.9402 65.1742L42.3878 75.2329L42.9848 77.5683L84.5372 67.5095L83.9402 65.1742Z" fill="white"/>
<path d="M85.8391 72.6583L44.2867 82.7129L44.8835 85.0483L86.4359 74.9937L85.8391 72.6583Z" fill="white"/>
<path d="M87.7487 80.1292L46.1964 90.1838L46.7931 92.5192L88.3455 82.4646L87.7487 80.1292Z" fill="white"/>
<path d="M89.67 87.5886L48.1177 97.6473L48.7147 99.9827L90.2671 89.924L89.67 87.5886Z" fill="white"/>
<path d="M132.656 16.6876L82.0835 28.9299L99.154 95.7063L149.727 83.4639L132.656 16.6876Z" fill="white"/>
<path d="M129.149 22.4954L87.5968 32.5542L88.1938 34.8896L129.746 24.8308L129.149 22.4954Z" fill="white"/>
<path d="M131.052 29.9837L89.5001 40.0383L90.0968 42.3737L131.649 32.3191L131.052 29.9837Z" fill="white"/>
<path d="M132.961 37.4564L91.4086 47.511L92.0054 49.8464L133.558 39.7918L132.961 37.4564Z" fill="white"/>
<path d="M134.879 44.9099L93.3267 54.9686L93.9237 57.304L135.476 47.2453L134.879 44.9099Z" fill="white"/>
<path d="M136.78 52.3988L95.2275 62.4534L95.8243 64.7888L137.377 54.7342L136.78 52.3988Z" fill="white"/>
<path d="M138.689 59.8712L97.1362 69.9258L97.733 72.2612L139.285 62.2066L138.689 59.8712Z" fill="white"/>
<path d="M140.609 67.3239L99.0565 77.3827L99.6535 79.7181L141.206 69.6593L140.609 67.3239Z" fill="white"/>
<path d="M142.506 74.8137L100.954 84.8683L101.551 87.2037L143.103 77.1491L142.506 74.8137Z" fill="white"/>
<path d="M104.73 105.253L96.7285 107.19C94.975 107.614 93.2008 106.574 92.764 104.869L92.0334 102.01L106.384 98.5374L107.115 101.396C107.551 103.101 106.483 104.829 104.73 105.253Z" fill="#8591FF"/>
<path d="M282.331 9.23121C278.181 5.391 272.937 2.77181 267.538 1.02175C267.502 1.00994 267.419 0.987508 267.295 0.955624C262.405 -0.318541 257.25 -0.318541 252.36 0.955624C252.237 0.987508 252.153 1.00994 252.117 1.02175C246.718 2.77181 241.474 5.39218 237.324 9.23121C224.971 20.6609 226.978 41.4066 239.009 52.3533C242.383 55.4236 243.865 59.3878 244.898 63.7582C245.21 65.0749 247 78.8026 246.375 78.8026C252.412 78.8026 259.826 78.8026 259.826 78.8026C259.826 78.8026 267.241 78.8026 273.278 78.8026C272.654 78.8026 274.444 65.0737 274.755 63.7582C275.789 59.389 277.27 55.4247 280.645 52.3533C292.677 41.4077 294.683 20.6621 282.331 9.23121Z" fill="#8591FF"/>
<path opacity="0.52" d="M254.989 63.7581C253.957 59.3888 252.474 55.4246 249.1 52.3532C237.069 41.4064 235.062 20.6608 247.416 9.23108C251.566 5.39087 256.81 2.77169 262.208 1.02163C262.245 1.00982 262.327 0.987382 262.451 0.955498C263.252 0.746483 264.06 0.584702 264.873 0.444178C260.723 -0.272614 256.449 -0.110834 252.36 0.955498C252.237 0.987382 252.153 1.00982 252.117 1.02163C246.718 2.77169 241.473 5.39205 237.324 9.23108C224.971 20.6608 226.978 41.4064 239.009 52.3532C242.383 55.4234 243.865 59.3876 244.898 63.7581C245.21 65.0747 247 78.8024 246.375 78.8024C249.842 78.8024 253.755 78.8024 256.466 78.8024C257.091 78.8024 255.301 65.0736 254.989 63.7581Z" fill="#FFF6E7"/>
<path d="M259.827 78.8026V46.7867L265.618 43.5381C267.532 42.4647 267.15 39.6743 265.014 39.1264L254.476 36.4198C252.679 35.9581 252.475 33.5562 254.17 32.8134L259.826 30.3371V19.4695" stroke="#FEFEFE" stroke-width="2.2387" stroke-miterlimit="10" stroke-linecap="round"/>
<path d="M275.956 83.2083C275.956 84.1813 275.146 84.9701 274.146 84.9701H244.565C243.565 84.9701 242.755 84.1813 242.755 83.2083C242.755 82.2352 243.565 81.4464 244.565 81.4464H274.146C275.144 81.4464 275.956 82.2352 275.956 83.2083Z" fill="#313131"/>
<path d="M275.956 88.4951C275.956 89.4682 275.146 90.2582 274.146 90.2582H244.565C243.565 90.2582 242.755 89.4694 242.755 88.4951C242.755 87.5221 243.565 86.7333 244.565 86.7333H274.146C275.144 86.7333 275.956 87.5221 275.956 88.4951Z" fill="#313131"/>
<path d="M275.956 93.7821C275.956 94.7551 275.146 95.544 274.146 95.544H244.565C243.565 95.544 242.755 94.7551 242.755 93.7821C242.755 92.809 243.565 92.019 244.565 92.019H274.146C275.144 92.0202 275.956 92.809 275.956 93.7821Z" fill="#313131"/>
<path d="M259.354 107.88C265.189 107.88 269.919 103.277 269.919 97.5997H248.791C248.791 103.279 253.52 107.88 259.354 107.88Z" fill="#313131"/>
<path d="M384.507 114.64V106.363H380.749C380.038 102.432 378.386 98.8255 376.027 95.754L379.009 92.8526L372.994 87.0002L369.901 90.0102C366.735 87.9059 363.055 86.496 359.09 85.9398V81.6166H350.586V86.1015C346.784 86.7994 343.289 88.3133 340.275 90.4424L337.264 87.5127L331.25 93.3651L334.299 96.3327C332.071 99.4159 330.554 103.008 329.939 106.896H325.717V115.171H330.033C330.729 118.964 332.299 122.452 334.537 125.45L331.215 128.683L337.229 134.535L340.594 131.262C343.678 133.371 347.26 134.825 351.134 135.453V139.92H359.639V135.453C363.5 134.828 367.069 133.383 370.148 131.285L372.96 134.023L378.975 128.17L376.21 125.48C378.564 122.338 380.176 118.649 380.823 114.64H384.507ZM355.386 124.814C347.397 124.814 340.919 118.511 340.919 110.736C340.919 102.96 347.397 96.6574 355.386 96.6574C363.377 96.6574 369.854 102.961 369.854 110.736C369.854 118.512 363.377 124.814 355.386 124.814Z" fill="#666666"/>
<path d="M418.422 146.03V141.256H416.253C415.843 138.987 414.891 136.908 413.53 135.135L415.251 133.461L411.782 130.084L409.998 131.82C408.172 130.606 406.048 129.793 403.76 129.472V126.978H398.854V129.565C396.661 129.968 394.645 130.841 392.906 132.069L391.169 130.38L387.7 133.756L389.459 135.468C388.174 137.246 387.299 139.319 386.944 141.561H384.508V146.336H386.998C387.4 148.524 388.306 150.536 389.596 152.265L387.679 154.131L391.148 157.507L393.089 155.619C394.869 156.836 396.934 157.674 399.169 158.036V160.612H404.075V158.036C406.303 157.676 408.362 156.842 410.137 155.632L411.76 157.21L415.229 153.834L413.635 152.283C414.993 150.47 415.923 148.342 416.295 146.029L418.422 146.03ZM401.622 151.899C397.013 151.899 393.276 148.263 393.276 143.777C393.276 139.292 397.012 135.655 401.622 135.655C406.232 135.655 409.969 139.291 409.969 143.777C409.969 148.263 406.232 151.899 401.622 151.899Z" fill="#9E9E9E"/>
<path d="M495.722 84.1956V67.1992H488.003C486.542 59.1256 483.152 51.7203 478.307 45.4109L484.432 39.451L472.082 27.4332L465.731 33.6139C459.229 29.2931 451.671 26.3976 443.528 25.2533V16.3755H426.062V25.5863C418.256 27.0187 411.077 30.1292 404.887 34.5019L398.705 28.4866L386.355 40.5043L392.618 46.5988C388.042 52.9307 384.928 60.3076 383.665 68.2916H374.993V85.2879H383.856C385.287 93.077 388.513 100.24 393.107 106.395L386.282 113.036L398.632 125.054L405.542 118.331C411.878 122.664 419.23 125.649 427.187 126.937V136.112H444.653V126.937C452.582 125.654 459.913 122.686 466.234 118.378L472.012 124.001L484.362 111.983L478.686 106.46C483.521 100.006 486.831 92.4322 488.157 84.1968L495.722 84.1956ZM435.92 105.092C419.511 105.092 406.208 92.1476 406.208 76.181C406.208 60.2132 419.511 47.2684 435.92 47.2684C452.329 47.2684 465.631 60.2132 465.631 76.181C465.631 92.1476 452.329 105.092 435.92 105.092Z" fill="#8B8B8C"/>
<path d="M435.358 93.2104C444.987 93.2104 452.792 85.6146 452.792 76.2447C452.792 66.8748 444.987 59.2791 435.358 59.2791C425.729 59.2791 417.923 66.8748 417.923 76.2447C417.923 85.6146 425.729 93.2104 435.358 93.2104Z" fill="#666666"/>
<path d="M95.7529 163.033C58.2919 165.244 29.1726 187.09 30.7149 211.827C32.2573 236.564 63.8752 254.825 101.336 252.613C101.364 252.612 101.392 252.61 101.42 252.609C105.107 252.388 107.685 248.922 106.774 245.44C106.331 243.745 106.081 241.97 106.052 240.137C105.861 228.346 115.235 218.216 127.304 217.154C136.063 216.384 144.065 220.391 148.684 226.912C150.963 230.13 155.807 230.357 158.272 227.271C163.903 220.216 166.896 212.185 166.374 203.821C164.833 179.083 133.215 160.822 95.7529 163.033Z" fill="#5A5A63"/>
<path d="M95.504 159.03C58.043 161.241 28.9237 183.087 30.4661 207.824C32.0084 232.561 63.6264 250.822 101.089 248.61C101.116 248.609 101.144 248.607 101.172 248.606C104.859 248.385 107.438 244.919 106.526 241.436C106.083 239.742 105.833 237.967 105.804 236.134C105.614 224.343 114.987 214.212 127.056 213.151C135.816 212.381 143.817 216.388 148.436 222.908C150.715 226.126 155.559 226.354 158.024 223.267C163.656 216.213 166.648 208.182 166.127 199.818C164.583 175.079 132.965 156.818 95.504 159.03Z" fill="#8B8B8C"/>
<path d="M82.2732 229.155C82.5474 233.549 79.1083 237.328 74.5929 237.595C70.0774 237.862 66.1942 234.515 65.9199 230.121C65.6457 225.727 69.0848 221.948 73.6002 221.682C78.1157 221.415 81.9989 224.761 82.2732 229.155Z" fill="#8591FF"/>
<path d="M59.9568 214.069C60.2311 218.463 56.792 222.241 52.2765 222.508C47.7611 222.775 43.8778 219.429 43.6036 215.034C43.3293 210.64 46.7684 206.862 51.2839 206.595C55.8006 206.328 59.6826 209.674 59.9568 214.069Z" fill="#8591FF"/>
<path d="M66.5181 187.681C66.7924 192.075 63.3533 195.853 58.8379 196.12C54.3224 196.387 50.4392 193.041 50.1649 188.647C49.8907 184.252 53.3297 180.474 57.8452 180.207C62.3619 179.94 66.2451 183.287 66.5181 187.681Z" fill="#8591FF"/>
<path d="M94.1753 173.419C94.4495 177.813 91.0104 181.592 86.495 181.859C81.9795 182.126 78.0963 178.779 77.822 174.385C77.5478 169.991 80.9869 166.212 85.5023 165.945C90.0178 165.679 93.901 169.025 94.1753 173.419Z" fill="#8591FF"/>
<path d="M125.327 173.809C125.601 178.203 122.162 181.982 117.647 182.248C113.131 182.515 109.248 179.169 108.974 174.775C108.7 170.381 112.139 166.602 116.654 166.335C121.17 166.068 125.053 169.415 125.327 173.809Z" fill="#8591FF"/>
<path d="M151.62 188.229C151.894 192.623 148.455 196.401 143.94 196.668C139.424 196.935 135.541 193.589 135.267 189.195C134.993 184.8 138.432 181.022 142.947 180.755C147.464 180.488 151.347 183.835 151.62 188.229Z" fill="#8591FF"/>
<path opacity="0.68" d="M131.963 163.751L124.251 179.452C123.234 179.404 122.251 179.966 121.846 180.937L121.824 180.99C121.309 182.218 121.916 183.619 123.179 184.12L123.902 184.407C123.76 184.361 123.025 184.277 121.474 186.475C121.473 186.476 121.473 186.476 121.473 186.477C121.38 186.609 121.283 186.752 121.183 186.902C121.173 186.918 121.164 186.932 121.153 186.947C121.06 187.088 120.965 187.237 120.866 187.392C120.847 187.424 120.827 187.455 120.807 187.487C120.715 187.634 120.621 187.789 120.525 187.951C120.497 187.998 120.468 188.047 120.439 188.096C120.348 188.251 120.256 188.411 120.161 188.579C120.124 188.645 120.086 188.714 120.047 188.782C119.957 188.944 119.865 189.112 119.772 189.285C119.726 189.37 119.679 189.458 119.632 189.546C119.542 189.715 119.451 189.888 119.358 190.068C119.303 190.175 119.247 190.284 119.19 190.395C119.101 190.571 119.011 190.75 118.92 190.935C118.857 191.063 118.792 191.195 118.727 191.328C118.637 191.514 118.546 191.7 118.454 191.895C118.383 192.041 118.312 192.196 118.24 192.349C118.149 192.543 118.058 192.738 117.965 192.942C117.886 193.115 117.805 193.297 117.723 193.477C117.634 193.677 117.544 193.875 117.451 194.083C117.363 194.284 117.272 194.494 117.181 194.703C117.091 194.911 117.001 195.115 116.909 195.331C116.812 195.558 116.712 195.797 116.613 196.032C116.523 196.245 116.435 196.454 116.342 196.676C116.236 196.935 116.124 197.209 116.015 197.479C115.926 197.698 115.839 197.91 115.748 198.137C115.625 198.442 115.499 198.763 115.373 199.082C115.291 199.289 115.211 199.487 115.129 199.699C114.98 200.082 114.827 200.484 114.673 200.884C114.608 201.053 114.545 201.213 114.48 201.386C114.259 201.969 114.033 202.57 113.802 203.195C113.185 204.868 112.463 206.838 111.667 209.022C111.574 209.276 111.485 209.523 111.389 209.783C111.269 210.114 111.142 210.46 111.019 210.801C110.916 211.084 110.815 211.362 110.709 211.652C110.547 212.1 110.379 212.563 110.212 213.026C110.136 213.234 110.064 213.435 109.987 213.646C109.821 214.104 109.651 214.574 109.481 215.045C109.395 215.285 109.309 215.52 109.221 215.763C109.061 216.205 108.899 216.658 108.735 217.11C108.634 217.39 108.535 217.664 108.433 217.948C108.245 218.471 108.053 219.003 107.86 219.538C107.787 219.739 107.717 219.936 107.644 220.139C107.449 220.685 107.25 221.239 107.049 221.795C106.964 222.032 106.879 222.267 106.794 222.506C106.609 223.023 106.421 223.548 106.233 224.074C106.137 224.342 106.042 224.607 105.945 224.877C105.745 225.434 105.543 225.999 105.342 226.564C105.255 226.808 105.168 227.049 105.082 227.293C104.883 227.849 104.683 228.411 104.483 228.975C104.382 229.256 104.282 229.534 104.183 229.817C104.003 230.322 103.823 230.83 103.642 231.339C103.513 231.699 103.386 232.059 103.257 232.422C103.102 232.858 102.945 233.299 102.79 233.738C102.642 234.156 102.494 234.573 102.345 234.992C102.178 235.462 102.011 235.934 101.845 236.405C101.757 236.651 101.67 236.896 101.582 237.144C100.222 240.99 98.8508 244.893 97.5014 248.759C98.6906 248.729 99.8872 248.681 101.09 248.61C101.118 248.609 101.146 248.607 101.173 248.605C104.86 248.385 107.439 244.919 106.527 241.436C106.085 239.742 105.835 237.967 105.805 236.134C105.639 225.815 112.796 216.768 122.677 213.957C123.769 211.657 124.745 209.593 125.561 207.851C134.252 189.33 132.092 187.67 131.819 187.541L132.543 187.828C133.805 188.328 135.245 187.737 135.76 186.509L135.782 186.456C136.262 185.307 135.755 184.016 134.654 183.444L140.433 167.277C137.761 165.962 134.932 164.782 131.963 163.751Z" fill="#313131"/>
<path opacity="0.42" d="M65.1007 186.461C65.2148 188.298 63.7768 189.879 61.8886 189.99C60.0004 190.101 58.3755 188.702 58.2614 186.865C58.1473 185.027 59.5853 183.446 61.4736 183.335C63.3618 183.224 64.9855 184.623 65.1007 186.461Z" fill="white"/>
<path opacity="0.42" d="M92.7748 172.485C92.8889 174.322 91.4509 175.904 89.5627 176.015C87.6744 176.126 86.0496 174.726 85.9355 172.889C85.8214 171.051 87.2594 169.47 89.1476 169.359C91.0359 169.247 92.6595 170.646 92.7748 172.485Z" fill="white"/>
<path opacity="0.42" d="M122.077 171.772C122.191 173.609 120.753 175.19 118.865 175.301C116.977 175.412 115.352 174.013 115.238 172.176C115.124 170.338 116.562 168.757 118.45 168.646C120.338 168.535 121.962 169.934 122.077 171.772Z" fill="white"/>
<path opacity="0.42" d="M56.5031 211.716C56.6172 213.553 55.1792 215.135 53.291 215.246C51.4028 215.357 49.7779 213.957 49.6638 212.12C49.5497 210.282 50.9878 208.701 52.876 208.59C54.7642 208.479 56.3879 209.879 56.5031 211.716Z" fill="white"/>
<path opacity="0.42" d="M80.7866 226.842C80.9007 228.679 79.4627 230.261 77.5744 230.372C75.6862 230.483 74.0613 229.083 73.9473 227.246C73.8332 225.408 75.2712 223.827 77.1594 223.716C79.0476 223.605 80.6713 225.004 80.7866 226.842Z" fill="white"/>
<path d="M161.914 159.009C161.914 159.009 173.091 153.064 173.807 143.877C173.762 138.447 171.339 133.992 171.339 133.992L169.808 139.587C169.808 139.587 168.967 130.798 162.518 126.551C156.068 122.305 157.655 123.498 157.655 123.498C157.655 123.498 163.071 130.492 157.059 142.09C151.047 153.689 158.634 157.71 158.634 157.71L161.914 159.009Z" fill="#8591FF"/>
<path d="M161.224 155.243C161.224 155.243 159.202 145.156 163.822 139.736C157.816 147.145 156.576 153.097 158.085 157.907C161.224 155.243 161.224 155.243 161.224 155.243Z" fill="#A87D1D"/>
<path d="M155.825 157.236C156.809 155.297 159.165 154.427 161.224 155.243L161.26 155.257L161.297 155.271C163.355 156.087 164.417 158.311 163.729 160.368L156.38 182.338L150.846 180.145L145.312 177.952L155.825 157.236Z" fill="white"/>
<path d="M144.457 182.864L153.819 186.573C155.081 187.074 156.522 186.483 157.036 185.254L157.058 185.201C157.572 183.971 156.966 182.571 155.702 182.07L146.34 178.361C145.078 177.86 143.638 178.451 143.123 179.68L143.101 179.733C142.588 180.961 143.195 182.363 144.457 182.864Z" fill="#CCCCCC"/>
<path d="M145.208 183.16L149.139 184.717L153.069 186.274C153.069 186.274 156.052 186.96 146.838 206.595C139.99 221.188 122.376 257.788 112.226 277.343C111.277 279.173 108.43 278.045 109.064 276.09C115.838 255.197 129.505 217.034 135.08 201.936C142.581 181.624 145.208 183.16 145.208 183.16Z" fill="#313131"/>
<path d="M124.245 253.439C119.858 262.34 115.623 270.799 112.225 277.344C111.276 279.174 108.429 278.046 109.063 276.092C111.331 269.097 114.372 260.166 117.621 250.814L124.245 253.439Z" fill="white"/>
<path opacity="0.75" d="M122.859 235.888C137.3 218.494 142.729 185.363 142.753 185.219C141.15 187.491 138.677 192.2 135.08 201.939C132.356 209.315 127.7 222.201 122.859 235.888Z" fill="white"/>
<path d="M402.441 195.098L404.999 200.142L410.72 200.951L406.581 204.878L407.558 210.423L402.441 207.805L397.324 210.423L398.302 204.878L394.163 200.951L399.883 200.142L402.441 195.098Z" fill="#9E9E9E"/>
<path d="M476.098 188.05L479.67 195.094L487.659 196.224L481.879 201.707L483.243 209.449L476.098 205.794L468.954 209.449L470.318 201.707L464.538 196.224L472.526 195.094L476.098 188.05Z" fill="#666666"/>
<path d="M453.744 293.612L455.737 297.543L460.197 298.174L456.97 301.235L457.732 305.556L453.744 303.515L449.756 305.556L450.517 301.235L447.29 298.174L451.75 297.543L453.744 293.612Z" fill="#9E9E9E"/>
<path d="M382.602 266.978L386.174 274.022L394.162 275.15L388.382 280.633L389.747 288.375L382.602 284.72L375.457 288.375L376.822 280.633L371.041 275.15L379.029 274.022L382.602 266.978Z" fill="#666666"/>
<path d="M451.103 283.623C471.525 275.654 481.442 253.084 473.253 233.211C465.064 213.337 441.869 203.687 421.447 211.656C401.025 219.625 391.108 242.196 399.297 262.069C407.486 281.942 430.68 291.592 451.103 283.623Z" fill="#8591FF"/>
<g opacity="0.67">
<path d="M425.543 284.973C439.616 288.794 454.026 284.757 463.857 275.579C457.2 277.315 449.994 277.4 442.874 275.467C421.682 269.713 409.295 248.33 415.209 227.708C417.195 220.779 421.001 214.824 425.974 210.181C412.816 213.613 401.804 223.52 397.877 237.215C391.965 257.836 404.351 279.219 425.543 284.973Z" fill="#A87D1D"/>
</g>
<path opacity="0.52" d="M446.958 210.293C444.974 209.755 442.981 209.372 440.997 209.137C439.958 212.762 439.391 216.578 439.391 220.525C439.391 240.705 453.91 257.574 473.333 261.811C473.824 260.593 474.256 259.34 474.624 258.053C480.535 237.43 468.149 216.046 446.958 210.293Z" fill="#FFF6E7"/>
<path d="M396.55 244.443C381.094 238.583 371.481 233.283 372.289 230.466C373.633 225.78 403.3 229.742 438.554 239.314C473.808 248.887 501.296 260.445 499.953 265.131C499.148 267.939 488.173 267.641 471.919 264.892" stroke="#666666" stroke-width="2" stroke-miterlimit="10"/>
</svg>
